<?xml version="1.0" encoding="UTF-8"?>
<svg version="1.1" xmlns="http://www.w3.org/2000/svg" width="512" height="512">
<path d="M0 0 C0.57363281 0.15855469 1.14726563 0.31710937 1.73828125 0.48046875 C3.61883664 0.99697941 5.50050562 1.50944045 7.3828125 2.01953125 C9.25576046 2.52720937 11.1285532 3.03551384 12.99902344 3.55224609 C89.7739887 24.73703941 171.9550917 26.43916779 431.69921875 1.26171875 C435 0 435 0 438 0 C435.92136783 17.62556268 433.78055977 35.24372365 431.4926033 52.84340858 C431.0034709 56.60910282 430.52217865 60.37547588 430.05761719 64.14428711 C429.59796541 67.87128938 429.11922438 71.59538752 428.62720871 75.31825066 C428.44591113 76.71468911 428.27122243 78.11200427 428.1037178 79.51016426 C426.98810576 88.77418297 425.52195471 95.70190443 418.6328125 102.25 C389.4899061 122.58648297 355.1833599 130.0548909 320.5625 135.3125 C319.44343262 135.48410645 318.32436523 135.65571289 317.17138672 135.83251953 C316.10549316 135.9870459 315.03959961 136.14157227 313.94140625 136.30078125 C313.01013916 136.43653564 312.07887207 136.57229004 311.11938477 136.7121582 C307.07213928 137.08561852 303.06110099 137.05672548 299 137 C298.99120064 135.57299271 298.99120064 135.57299271 298.98222351 134.11715698 C298.92495567 125.14201319 298.85217283 116.16711075 298.76428509 107.19221306 C298.71959968 102.57835519 298.68033953 97.96458526 298.65356445 93.35058594 C298.62751321 88.89596707 298.58709794 84.4416869 298.53681374 79.98727798 C298.52015733 78.28971705 298.50863541 76.59209755 298.50238609 74.8944664 C298.49273151 72.51245556 298.46465714 70.13130878 298.43237305 67.74951172 C298.43452568 66.7018589 298.43452568 66.7018589 298.4367218 65.63304138 C298.34897204 61.0409799 297.53642891 57.84007356 295 54 C291.27153736 51.26190037 288.63715402 50.62309602 284.04823303 50.61231995 C282.85522079 50.60241531 281.66220856 50.59251068 280.43304443 50.58230591 C279.13264221 50.58680756 277.83223999 50.5913092 276.49243164 50.59594727 C275.10242667 50.59024199 273.71242639 50.58327712 272.32243347 50.57514954 C268.55378417 50.55721993 264.78536772 50.5583861 261.01668859 50.56409192 C257.86807534 50.56718415 254.71950679 50.56109094 251.5708999 50.55505317 C244.14171114 50.54101015 236.71263737 50.54256729 229.28344727 50.55395508 C221.62448421 50.5654358 213.96587135 50.5513611 206.30695444 50.5245586 C199.72589755 50.50239217 193.1449505 50.49576634 186.56385893 50.50163502 C182.63561234 50.50500361 178.7075902 50.50259625 174.77937508 50.48538399 C171.08479858 50.46990174 167.39074027 50.47388399 163.69618416 50.49268913 C161.69827593 50.49812422 159.70034437 50.48387059 157.70248413 50.46899414 C149.00506123 50.4520243 149.00506123 50.4520243 142 55 C139.36025079 58.45605433 139.69378509 62.43308295 139.68115234 66.61425781 C139.67110672 67.37562042 139.6610611 68.13698303 139.65071106 68.92141724 C139.61987938 71.43197898 139.6028441 73.94243408 139.5859375 76.453125 C139.56722583 78.19619667 139.54765241 79.93925929 139.5272522 81.68231201 C139.47592488 86.26565206 139.43630237 90.84902148 139.39910889 95.43249512 C139.35907301 100.11132069 139.30797876 104.79002402 139.2578125 109.46875 C139.16104612 118.64574747 139.07664358 127.82281395 139 137 C136.65398746 136.85689424 134.30829799 136.71009973 131.96264648 136.5612793 C130.65633774 136.47984177 129.35002899 136.39840424 128.00413513 136.3144989 C121.63858644 135.86257163 115.35521318 134.84773464 109.0625 133.8125 C108.39635681 133.70329224 107.73021362 133.59408447 107.04388428 133.48156738 C78.58907579 128.77668766 36.41879133 121.62081785 16 99 C12.63171341 93.52681184 11.9784659 87.99680623 11.109375 81.75 C10.94419373 80.62102295 10.77901245 79.4920459 10.60882568 78.32885742 C10.06065145 74.55417519 9.52926471 70.77737753 9 67 C8.80898386 65.65246271 8.61765494 64.30496973 8.42602539 62.95751953 C7.11150851 53.70816245 5.8271827 44.45479608 4.55328369 35.19976807 C4.14157948 32.21360755 3.72733703 29.22780115 3.31311417 26.24198914 C2.91233059 23.35119724 2.51288643 20.46022157 2.11388397 17.56918335 C1.92446107 16.19757038 1.73467142 14.826008 1.54450226 13.45449829 C1.28256248 11.56360032 1.02257791 9.6724318 0.76269531 7.78125 C0.6148761 6.70939453 0.46705688 5.63753906 0.3147583 4.53320312 C0 2 0 2 0 0 Z " fill="#6B88F7" transform="translate(34,276)"/>
<path d="M0 0 C2.89575195 1.20239258 2.89575195 1.20239258 5.73828125 2.89453125 C7.32781616 3.82579834 7.32781616 3.82579834 8.94946289 4.77587891 C10.61416626 5.78400635 10.61416626 5.78400635 12.3125 6.8125 C13.46740401 7.50021763 14.6229273 8.1868963 15.77905273 8.87255859 C18.09543469 10.24965979 20.40598483 11.63589771 22.71289062 13.02880859 C25.68152062 14.80901645 28.66912284 16.54774497 31.671875 18.26953125 C33.30260393 19.22046196 34.93284981 20.17222179 36.5625 21.125 C37.31120361 21.54885986 38.05990723 21.97271973 38.83129883 22.40942383 C43.84358756 25.4041274 43.84358756 25.4041274 44.69506836 28.64794922 C44.7956958 29.42412598 44.89632324 30.20030273 45 31 C40.38230081 34.34450641 35.66976183 37.23810771 30.55615234 39.77197266 C27.86536273 41.1130156 25.21253383 42.52227687 22.55859375 43.93457031 C21.18629974 44.64480407 19.7989815 45.32672935 18.3984375 45.97949219 C13.64943005 48.21392687 8.91371454 50.47791503 6 55 C4.03101248 62.13556785 4.45610894 69.682193 5 77 C6.15781982 77.01458252 7.31563965 77.02916504 8.50854492 77.04418945 C64.82646974 77.80319212 124.0975961 79.02887392 179 93 C178.99555878 92.13191711 178.99111755 91.26383423 178.98654175 90.3694458 C178.94646741 82.18852765 178.91601679 74.00764246 178.89637566 65.82664871 C178.88593851 61.620718 178.87178057 57.4148684 178.84912109 53.20898438 C178.82739025 49.15006462 178.81543085 45.09122289 178.81024551 41.03224945 C178.80655019 39.48369875 178.79933417 37.93515232 178.78853989 36.38663483 C178.77402165 34.21762362 178.77202218 32.04893479 178.77294922 29.87988281 C178.768508 28.64522278 178.76406677 27.41056274 178.75949097 26.13848877 C178.989722 23.13412135 179.35777016 21.48610057 181 19 C183.43378915 17.10705289 184.85297405 16.99688009 187.9453125 17.0625 C193.63559771 17.97291615 198.34388622 21.36896583 203.1875 24.3125 C204.23164063 24.93463379 205.27578125 25.55676758 206.3515625 26.19775391 C209.57426818 28.12112325 212.78729466 30.0599843 216 32 C218.005852 33.20031971 220.01233624 34.3995837 222.01953125 35.59765625 C226.68697391 38.38642583 231.34669167 41.18771534 236 44 C235.49508166 48.53662201 235.49508166 48.53662201 233.32250977 50.57006836 C232.23667603 51.22954468 232.23667603 51.22954468 231.12890625 51.90234375 C229.9071167 52.65813721 229.9071167 52.65813721 228.66064453 53.42919922 C227.78263184 53.94756348 226.90461914 54.46592773 226 55 C225.11812012 55.53254395 224.23624023 56.06508789 223.32763672 56.61376953 C220.54185276 58.28265633 217.74233792 59.92586261 214.9375 61.5625 C212.1403873 63.199414 209.34629828 64.83716865 206.57373047 66.51538086 C204 68 204 68 201.57080078 69.06469727 C199.2177287 70.17780677 197.707893 71.02707438 196 73 C194.88594579 77.27838121 194.92604528 81.41219397 195 85.8125 C194.98259766 87.56723633 194.98259766 87.56723633 194.96484375 89.35742188 C194.94131206 92.24005377 194.95426546 95.11777122 195 98 C195.87120483 98.17740723 195.87120483 98.17740723 196.76000977 98.35839844 C207.66057412 100.66366053 219.95480714 104.95480714 228 113 C227.9375 115.375 227.9375 115.375 227 118 C213.7982445 129.70417416 194.20932444 133.36745499 177.5625 137.5 C176.49757324 137.77972656 175.43264648 138.05945313 174.33544922 138.34765625 C166.62043423 140.17845962 160.68012668 139.72971914 153 138 C150.94166566 137.60887855 148.8816977 137.22627216 146.8203125 136.8515625 C145.74676514 136.65280518 144.67321777 136.45404785 143.56713867 136.24926758 C58.8953864 120.8931664 -32.34804395 122.05763808 -170.4309082 139.64428711 C-173.74591674 140.1032786 -176.2680949 139.50692732 -179.5234375 138.7421875 C-180.78478516 138.44892578 -182.04613281 138.15566406 -183.34570312 137.85351562 C-184.68905734 137.52839663 -186.03215241 137.20220521 -187.375 136.875 C-188.39243286 136.63124634 -188.39243286 136.63124634 -189.43041992 136.38256836 C-227.37849042 127.28348733 -227.37849042 127.28348733 -236 117 C-236.25 114.625 -236.25 114.625 -235 112 C-228.01371055 104.6554393 -217.26784014 101.230351 -207.76513672 98.4128418 C-206.4238118 98.01406075 -206.4238118 98.01406075 -205.0553894 97.60722351 C-204.3771109 97.40683975 -203.6988324 97.20645599 -203 97 C-202.99413376 96.05452805 -202.98826752 95.10905609 -202.98222351 94.13493347 C-202.9250544 85.23243304 -202.85232355 76.33017824 -202.76428509 67.42792797 C-202.71952361 62.85097698 -202.6802804 58.2741162 -202.65356445 53.69702148 C-202.62758887 49.28131581 -202.58722773 44.86595619 -202.53681374 40.45046425 C-202.520106 38.76437999 -202.5086161 37.07823583 -202.50238609 35.39208031 C-202.49278715 33.03339582 -202.46478016 30.6756045 -202.43237305 28.31713867 C-202.43380814 27.61726837 -202.43524323 26.91739807 -202.4367218 26.19631958 C-202.38175995 23.37505508 -202.31504551 21.45089678 -200.673172 19.10102844 C-197.77102595 17.19127538 -195.44780376 17.06030109 -192 17 C-189.16349757 18.17986431 -186.84433532 19.35668983 -184.25 20.9375 C-183.50427734 21.37336426 -182.75855469 21.80922852 -181.99023438 22.25830078 C-180.29671431 23.25160242 -178.60822537 24.2535127 -176.92382812 25.26220703 C-174.21020401 26.87506412 -171.48020177 28.45644394 -168.74188232 30.02693176 C-166.27046248 31.44591428 -163.80524119 32.8754329 -161.34118652 34.30715942 C-160.1169568 35.01718101 -158.89112887 35.72445431 -157.66369629 36.42892456 C-155.92595747 37.42908809 -154.19716311 38.44474294 -152.46875 39.4609375 C-151.46263672 40.04665527 -150.45652344 40.63237305 -149.41992188 41.23583984 C-146.96085854 43.02853472 -146.0418759 44.18430718 -145 47 C-148.11095333 50.42290725 -151.53919974 52.70052221 -155.5234375 54.96875 C-156.14723297 55.33093628 -156.77102844 55.69312256 -157.41372681 56.06628418 C-159.39746244 57.21677709 -161.38592524 58.35876715 -163.375 59.5 C-165.3560313 60.64271684 -167.33599435 61.78723531 -169.31484985 62.93371582 C-170.54221384 63.64416501 -171.77095053 64.35225019 -173.00131226 65.05749512 C-175.84503473 66.69753916 -178.58495295 68.39856791 -181.29931641 70.24804688 C-184 72 -184 72 -186 72 C-186 78.93 -186 85.86 -186 93 C-182.638125 92.2575 -179.27625 91.515 -175.8125 90.75 C-122.19713572 79.421926 -66.59577639 77.86498106 -12 77 C-12.00999275 75.70453751 -12.00999275 75.70453751 -12.02018738 74.38290405 C-12.08037273 66.2320592 -12.12601213 58.0812893 -12.15543652 49.93027306 C-12.17107261 45.7400398 -12.19227306 41.54999061 -12.22631836 37.35986328 C-12.25898553 33.31389183 -12.27686848 29.26809712 -12.28463173 25.22200394 C-12.29016207 23.68067265 -12.30096154 22.13935071 -12.31719017 20.59809494 C-12.33906293 18.43416415 -12.34196292 16.27095767 -12.34057617 14.10693359 C-12.35056892 12.26160538 -12.35056892 12.26160538 -12.36076355 10.3789978 C-11.95970199 6.6225592 -10.96506298 4.20827601 -9 1 C-5.93388284 -0.53305858 -3.38981673 -0.22099309 0 0 Z " fill="#4C84F6" transform="translate(257,65)"/>
<path d="M0 0 C3.90355261 0.59284724 7.32307542 1.8369194 10.97265625 3.27197266 C41.15506502 15.08165889 73.99495027 19.32153682 106 23 C107.84634033 23.21269531 107.84634033 23.21269531 109.72998047 23.4296875 C129.43291081 25.65121189 149.15311974 26.98069855 168.95275879 27.90429688 C170.86802706 27.99383061 172.78314151 28.08663798 174.69824219 28.1796875 C218.09199971 30.20641846 261.6412828 29.36409253 305 27 C305.71230774 26.96132812 306.42461548 26.92265625 307.1585083 26.8828125 C315.45636888 26.42413808 323.72686365 25.78346309 332 25 C332.6582074 24.93897095 333.31641479 24.87794189 333.99456787 24.81506348 C395.43505959 20.19474579 395.43505959 20.19474579 453.05322266 0.90527344 C455 0 455 0 458 0 C456.42699737 13.61879578 454.7546491 27.22409176 452.9375 40.8125 C452.77540039 42.06313232 452.61330078 43.31376465 452.44628906 44.60229492 C452.20797363 46.3557019 452.20797363 46.3557019 451.96484375 48.14453125 C451.75782837 49.69684448 451.75782837 49.69684448 451.54663086 51.28051758 C451.02142438 53.89341396 450.42626912 55.75844804 449 58 C409.52199815 80.75934264 347.84981777 80.81103949 303.57421875 83.62109375 C302.55989273 83.68561863 301.54556671 83.75014351 300.50050354 83.81662369 C278.71395873 85.16966943 256.96883626 85.46444217 235.14550781 85.39111328 C230.02440621 85.37402328 224.90377296 85.38422746 219.78268719 85.4014349 C197.95122172 85.46341908 176.2164247 85.00727395 154.42578125 83.62109375 C153.46179916 83.55991238 152.49781708 83.498731 151.50462341 83.43569565 C36.44715655 75.96477103 36.44715655 75.96477103 8 57 C7.33600118 54.48852547 6.862626 52.14259083 6.48046875 49.5859375 C6.35834518 48.83363861 6.23622162 48.08133972 6.11039734 47.3062439 C5.72245788 44.87318795 5.35753817 42.43770016 5 40 C4.88271545 39.20339966 4.76543091 38.40679932 4.64459229 37.58605957 C3.94187731 32.75315912 3.27916395 27.9155689 2.63745117 23.07421875 C2.30620217 20.57753208 1.96887981 18.0817156 1.63085938 15.5859375 C1.4163191 13.98702576 1.20211311 12.38806913 0.98828125 10.7890625 C0.88832352 10.04854645 0.78836578 9.3080304 0.68537903 8.54507446 C0.30624743 5.67007587 0 2.90374685 0 0 Z " fill="#5C86F6" transform="translate(24,202)"/>
<path d="M0 0 C6.6 0 13.2 0 20 0 C20 21.78 20 43.56 20 66 C50.36 66 80.72 66 112 66 C112 44.22 112 22.44 112 0 C118.27 0 124.54 0 131 0 C131 29.37 131 58.74 131 89 C133.97 89.66 136.94 90.32 140 91 C142.97994163 91.84513998 145.8897204 92.85084542 148.8125 93.875 C149.54919922 94.11863281 150.28589844 94.36226563 151.04492188 94.61328125 C155.15386408 96.04602894 158.53349844 97.22695368 161 101 C161.34536404 103.86242401 161.47163188 106.28198844 161.375 109.125 C161.37306641 110.21748047 161.37306641 110.21748047 161.37109375 111.33203125 C161.28148496 116.71851504 161.28148496 116.71851504 159 119 C156.53607193 119.20171286 154.18387083 119.27809276 151.71839905 119.26742554 C150.95926616 119.27195665 150.20013327 119.27648776 149.41799635 119.28115618 C146.86071591 119.29387037 144.30364654 119.29217533 141.74633789 119.29052734 C139.91841862 119.29650819 138.09050188 119.30331271 136.2625885 119.31088257 C131.28744413 119.3285942 126.31236848 119.33324009 121.33719563 119.33451414 C117.18935776 119.33640972 113.04153603 119.34376325 108.89370435 119.35085833 C99.11117549 119.36715925 89.32868346 119.3720257 79.54614258 119.37060547 C69.44182513 119.36940335 59.33772105 119.39051534 49.23345762 119.4220928 C40.56931297 119.44820864 31.90523821 119.45897475 23.24105448 119.45769465 C18.06146055 119.45718366 12.88205616 119.46294196 7.7025013 119.48405075 C2.83268276 119.50335449 -2.0367639 119.50361182 -6.90659523 119.48901749 C-8.69689346 119.48691852 -10.4872145 119.49169454 -12.27747345 119.5037384 C-14.71589717 119.51908402 -17.1530214 119.50995509 -19.59141541 119.49447632 C-20.30502902 119.50476344 -21.01864264 119.51505057 -21.75388092 119.52564943 C-24.95261452 119.48057077 -26.57876333 119.40282359 -28.93813419 117.14658546 C-30.32908452 114.33474829 -30.39867531 112.19158636 -30.375 109.0625 C-30.38273438 108.04285156 -30.39046875 107.02320313 -30.3984375 105.97265625 C-29.94039042 102.55526579 -29.10773363 100.71736959 -27 98 C-25.046875 96.8125 -25.046875 96.8125 -22.75 96 C-21.87859375 95.68546875 -21.0071875 95.3709375 -20.109375 95.046875 C-19.08328125 94.70140625 -18.0571875 94.3559375 -17 94 C-15.69260235 93.54718088 -14.38531698 93.09403749 -13.078125 92.640625 C-2.44607629 89 -2.44607629 89 0 89 C0 59.63 0 30.26 0 0 Z " fill="#778AF7" transform="translate(187,340)"/>
<path d="M0 0 C3.71261534 0.00008063 7.42510562 -0.00677484 11.13769531 -0.02050781 C54.56244425 -0.17847098 98.16300788 1.29590341 141.11181641 8.18530273 C141.11181641 8.51530273 141.11181641 8.84530273 141.11181641 9.18530273 C113.62821336 13.01832749 85.85133625 15.36858954 58.11181641 16.18530273 C56.67708169 16.22935739 55.24234876 16.27346997 53.80761719 16.31762695 C1.49253495 17.90573684 -50.63989094 17.08348997 -102.76318359 12.12280273 C-104.15025009 11.99088028 -104.15025009 11.99088028 -105.56533813 11.85629272 C-108.19160865 11.60422453 -110.81733846 11.34727865 -113.44287109 11.08764648 C-114.22457169 11.01165222 -115.00627228 10.93565796 -115.81166077 10.85736084 C-119.55389712 10.479412 -123.21688676 10.01109456 -126.88818359 9.18530273 C-123.40657858 6.86423272 -120.5631469 6.59329113 -116.52099609 6.18530273 C-115.78259995 6.10468094 -115.0442038 6.02405914 -114.28343201 5.94099426 C-111.86089848 5.67982342 -109.43724687 5.43184229 -107.01318359 5.18530273 C-105.33080846 5.00913448 -103.64843543 4.83294616 -101.96606445 4.65673828 C-87.29669135 3.1429785 -72.61464185 1.98418405 -57.88818359 1.18530273 C-56.86600739 1.12175095 -56.86600739 1.12175095 -55.82318115 1.05691528 C-37.23258852 -0.09298923 -18.61803496 -0.00213354 0 0 Z " fill="#5585F6" transform="translate(245.88818359375,200.814697265625)"/>
</svg>
